<?xml version="1.0" standalone="no"?>
<!DOCTYPE svg PUBLIC "-//W3C//DTD SVG 20010904//EN"
 "http://www.w3.org/TR/2001/REC-SVG-20010904/DTD/svg10.dtd">
<svg version="1.0" xmlns="http://www.w3.org/2000/svg"
 width="1024.000000pt" height="1024.000000pt" viewBox="0 0 1024.000000 1024.000000"
 preserveAspectRatio="xMidYMid meet">

<g transform="translate(0.000000,1024.000000) scale(0.100000,-0.100000)"
fill="#ffffff" stroke="none">
<path d="M4955 8113 c-693 -45 -1321 -314 -1851 -792 -359 -323 -655 -788
-818 -1285 -191 -583 -177 -1301 36 -1896 139 -390 336 -725 610 -1037 394
-449 997 -802 1578 -922 257 -53 382 -64 659 -58 249 5 365 19 601 73 374 85
809 298 1129 552 151 119 435 409 537 547 332 448 499 859 591 1445 23 145 25
609 5 765 -106 787 -488 1467 -1102 1961 -395 317 -921 550 -1404 619 -207 30
-399 39 -571 28z m-129 -518 c130 -38 207 -162 159 -255 -8 -16 -41 -47 -73
-70 -88 -61 -131 -128 -152 -238 -23 -114 -4 -196 105 -459 65 -158 95 -283
102 -429 l6 -122 -59 -12 c-32 -6 -71 -15 -86 -20 -22 -7 -30 -5 -37 8 -4 9
-36 123 -71 252 -104 394 -127 472 -251 846 -65 199 -119 373 -119 388 0 64
38 89 162 110 112 19 253 19 314 1z m908 -9 c123 -28 140 -69 87 -216 -82
-223 -303 -954 -397 -1312 -19 -73 -22 -75 -84 -59 -19 5 -53 12 -74 16 l-39
6 6 107 c9 172 43 302 135 527 82 199 96 287 67 400 -25 96 -64 151 -152 216
-66 49 -87 88 -80 146 9 81 86 160 180 184 48 12 272 3 351 -15z m-1700 -313
c120 -240 446 -1032 446 -1084 0 -4 -27 21 -60 55 -65 68 -122 111 -248 187
-45 28 -90 62 -100 77 -11 17 -19 55 -22 114 -5 76 -10 93 -36 130 -34 49
-109 94 -170 104 -23 3 -81 -1 -129 -9 -99 -17 -139 -11 -176 29 -20 21 -24
35 -23 82 1 91 43 152 162 241 128 94 243 161 278 161 32 0 36 -4 78 -87z
m2335 30 c123 -77 248 -178 286 -231 26 -38 30 -53 30 -109 0 -60 -2 -67 -33
-94 -37 -33 -79 -37 -188 -18 -118 21 -235 -26 -284 -113 -18 -32 -25 -65 -30
-130 -8 -104 -18 -118 -119 -175 -107 -59 -182 -113 -245 -175 -32 -33 -60
-57 -62 -56 -16 16 441 1089 487 1145 22 25 65 13 158 -44z m-2976 -567 c18
-7 45 -28 60 -45 25 -31 27 -38 27 -135 0 -157 31 -240 120 -320 57 -52 139
-87 290 -126 210 -54 322 -105 414 -189 35 -31 106 -138 106 -159 0 -17 -60
-112 -71 -112 -11 0 -611 268 -829 370 -353 166 -555 267 -574 288 -18 21 -18
23 2 71 41 99 171 271 246 324 64 45 148 59 209 33z m3585 -6 c57 -26 140
-113 213 -224 86 -131 98 -185 47 -218 -89 -59 -1349 -639 -1385 -638 -4 0
-23 26 -41 56 l-32 56 27 47 c15 25 50 69 78 98 103 103 216 156 429 204 220
49 322 113 384 238 23 47 27 71 32 180 4 109 8 130 27 157 45 63 138 82 221
44z m-4096 -821 c229 -91 513 -193 992 -355 169 -58 320 -111 335 -119 l28
-14 -21 -82 -21 -82 -150 6 c-175 6 -254 27 -383 102 -152 87 -208 108 -300
113 -159 9 -241 -27 -337 -148 -31 -39 -71 -80 -89 -91 -46 -28 -113 -25 -162
7 -105 68 -136 205 -99 447 23 153 69 237 131 237 13 0 47 -9 76 -21z m4562 6
c56 -37 89 -177 90 -375 1 -131 0 -137 -29 -195 -39 -76 -88 -116 -153 -123
-65 -6 -99 13 -155 85 -101 130 -161 164 -302 171 -113 5 -194 -14 -290 -69
-112 -64 -209 -109 -267 -125 -29 -8 -117 -17 -194 -21 l-142 -6 -17 59 c-29
99 -27 114 20 131 54 20 295 103 665 229 168 57 393 137 500 178 107 41 208
75 223 75 15 1 38 -6 51 -14z m-2181 -145 c261 -66 439 -259 483 -525 15 -85
16 -114 6 -192 -26 -205 -125 -374 -281 -477 -90 -60 -179 -93 -287 -106 -320
-40 -600 134 -708 439 -28 79 -30 97 -30 211 0 145 16 218 72 324 66 127 162
220 289 282 134 65 309 82 456 44z m-2329 -772 c14 -6 53 -44 86 -85 107 -129
188 -169 329 -161 89 6 157 31 298 111 54 31 127 67 163 81 71 26 205 46 315
46 l70 0 23 -86 c13 -48 19 -90 15 -94 -4 -4 -80 -32 -168 -63 -88 -31 -302
-106 -475 -167 -173 -61 -410 -147 -526 -191 -227 -86 -270 -97 -303 -80 -48
26 -88 174 -98 357 -7 136 5 191 57 263 51 70 146 101 214 69z m4469 -2 c48
-20 105 -91 124 -156 29 -99 1 -376 -48 -472 -26 -51 -59 -72 -101 -63 -18 4
-87 28 -153 52 -213 80 -814 295 -1098 392 -92 32 -169 60 -172 63 -3 2 2 22
9 44 8 21 20 60 27 87 l12 47 61 0 c98 0 231 -19 301 -42 36 -11 118 -52 183
-90 138 -81 217 -108 313 -108 134 0 236 52 324 166 26 32 60 67 78 76 39 21
96 23 140 4z m-3019 -453 l35 -56 -25 -47 c-86 -157 -212 -234 -506 -309 -192
-49 -236 -68 -302 -131 -79 -74 -98 -125 -105 -282 -7 -139 -18 -167 -77 -198
-39 -20 -150 -19 -189 2 -69 37 -211 208 -266 320 -23 48 -23 48 -3 74 29 40
581 315 1079 538 176 79 321 144 322 145 1 1 17 -25 37 -56z m1589 -4 c61 -28
171 -78 242 -109 406 -181 1008 -470 1033 -497 12 -13 22 -33 22 -43 0 -35
-107 -201 -186 -289 -82 -91 -195 -125 -281 -85 -57 28 -67 53 -74 191 -5 111
-9 128 -37 186 -63 128 -152 182 -396 241 -239 59 -359 125 -456 255 -67 88
-69 98 -29 155 18 25 37 46 41 46 4 0 59 -23 121 -51z m-1086 -291 l83 -23 0
-62 c0 -148 -37 -305 -122 -513 -28 -69 -59 -149 -69 -179 -40 -116 -34 -252
16 -351 22 -44 94 -119 147 -154 33 -22 58 -73 58 -120 0 -71 -66 -159 -145
-192 -54 -22 -190 -29 -309 -15 -150 18 -196 43 -196 109 0 21 36 145 80 277
44 132 124 395 176 585 181 654 183 660 194 660 3 0 42 -10 87 -22z m545 -63
c15 -44 55 -188 88 -320 84 -327 106 -402 226 -767 57 -175 104 -332 104 -351
0 -57 -40 -80 -180 -103 -107 -18 -221 -18 -288 -1 -101 27 -171 99 -180 186
-6 65 14 99 93 162 99 80 139 151 152 270 9 85 -12 176 -76 338 -103 258 -141
411 -141 574 0 66 0 67 28 68 15 0 47 6 72 14 25 7 52 12 60 11 9 -1 25 -32
42 -81z m-972 -189 c-29 -85 -158 -396 -277 -671 -208 -476 -195 -454 -245
-442 -40 10 -277 173 -335 230 -62 61 -85 103 -85 162 0 80 50 135 122 135 17
0 63 -5 101 -12 86 -14 160 0 217 42 63 45 84 89 93 192 9 110 10 112 179 222
69 46 152 109 185 142 33 34 61 60 63 59 1 -1 -7 -28 -18 -59z m1526 -155
c106 -64 150 -105 159 -144 2 -12 6 -49 8 -83 4 -79 32 -131 90 -171 67 -45
141 -60 228 -45 134 23 178 12 205 -54 52 -125 -41 -247 -317 -412 -87 -52
-136 -65 -157 -39 -22 26 -472 1106 -472 1132 0 3 34 -23 75 -58 42 -35 123
-92 181 -126z"/>
<path d="M5020 5623 c-99 -16 -204 -68 -267 -131 -92 -92 -143 -223 -143 -368
0 -197 108 -366 289 -452 62 -30 88 -36 159 -40 301 -16 532 201 532 500 0
140 -45 253 -140 348 -111 111 -282 168 -430 143z m162 -243 c59 -17 120 -69
151 -129 68 -135 10 -303 -125 -361 -128 -55 -279 -5 -340 114 -31 60 -36 169
-11 227 58 130 185 188 325 149z"/>
</g>
</svg>
