<?xml version="1.0" encoding="UTF-8"?>
<svg xmlns="http://www.w3.org/2000/svg" xmlns:xlink="http://www.w3.org/1999/xlink" width="200px" height="200px" viewBox="0 0 200 200" version="1.1">
<g id="surface1">
<path style=" stroke:none;fill-rule:nonzero;fill:rgb(100%,100%,100%);fill-opacity:1;" d="M 96.777344 41.542969 C 83.242188 42.421875 70.976562 47.675781 60.625 57.011719 C 53.613281 63.320312 47.832031 72.402344 44.648438 82.109375 C 40.917969 93.496094 41.191406 107.519531 45.351562 119.140625 C 48.066406 126.757812 51.914062 133.300781 57.265625 139.394531 C 64.960938 148.164062 76.738281 155.058594 88.085938 157.402344 C 93.105469 158.4375 95.546875 158.652344 100.957031 158.535156 C 105.820312 158.4375 108.085938 158.164062 112.695312 157.109375 C 120 155.449219 128.496094 151.289062 134.746094 146.328125 C 137.695312 144.003906 143.242188 138.339844 145.234375 135.644531 C 151.71875 126.894531 154.980469 118.867188 156.777344 107.421875 C 157.226562 104.589844 157.265625 95.527344 156.875 92.480469 C 154.804688 77.109375 147.34375 63.828125 135.351562 54.179688 C 127.636719 47.988281 117.363281 43.4375 107.929688 42.089844 C 103.886719 41.503906 100.136719 41.328125 96.777344 41.542969 Z M 94.257812 51.660156 C 96.796875 52.402344 98.300781 54.824219 97.363281 56.640625 C 97.207031 56.953125 96.5625 57.558594 95.9375 58.007812 C 94.21875 59.199219 93.378906 60.507812 92.96875 62.65625 C 92.519531 64.882812 92.890625 66.484375 95.019531 71.621094 C 96.289062 74.707031 96.875 77.148438 97.011719 80 L 97.128906 82.382812 L 95.976562 82.617188 C 95.351562 82.734375 94.589844 82.910156 94.296875 83.007812 C 93.867188 83.144531 93.710938 83.105469 93.574219 82.851562 C 93.496094 82.675781 92.871094 80.449219 92.1875 77.929688 C 90.15625 70.234375 89.707031 68.710938 87.285156 61.40625 C 86.015625 57.519531 84.960938 54.121094 84.960938 53.828125 C 84.960938 52.578125 85.703125 52.089844 88.125 51.679688 C 90.3125 51.308594 93.066406 51.308594 94.257812 51.660156 Z M 111.992188 51.835938 C 114.394531 52.382812 114.726562 53.183594 113.691406 56.054688 C 112.089844 60.410156 107.773438 74.6875 105.9375 81.679688 C 105.566406 83.105469 105.507812 83.144531 104.296875 82.832031 C 103.925781 82.734375 103.261719 82.597656 102.851562 82.519531 L 102.089844 82.402344 L 102.207031 80.3125 C 102.382812 76.953125 103.046875 74.414062 104.84375 70.019531 C 106.445312 66.132812 106.71875 64.414062 106.152344 62.207031 C 105.664062 60.332031 104.902344 59.257812 103.183594 57.988281 C 101.894531 57.03125 101.484375 56.269531 101.621094 55.136719 C 101.796875 53.554688 103.300781 52.011719 105.136719 51.542969 C 106.074219 51.308594 110.449219 51.484375 111.992188 51.835938 Z M 78.789062 57.949219 C 81.132812 62.636719 87.5 78.105469 87.5 79.121094 C 87.5 79.199219 86.972656 78.710938 86.328125 78.046875 C 85.058594 76.71875 83.945312 75.878906 81.484375 74.394531 C 80.605469 73.847656 79.726562 73.183594 79.53125 72.890625 C 79.316406 72.558594 79.160156 71.816406 79.101562 70.664062 C 79.003906 69.179688 78.90625 68.847656 78.398438 68.125 C 77.734375 67.167969 76.269531 66.289062 75.078125 66.09375 C 74.628906 66.035156 73.496094 66.113281 72.558594 66.269531 C 70.625 66.601562 69.84375 66.484375 69.121094 65.703125 C 68.730469 65.292969 68.652344 65.019531 68.671875 64.101562 C 68.691406 62.324219 69.511719 61.132812 71.835938 59.394531 C 74.335938 57.558594 76.582031 56.25 77.265625 56.25 C 77.890625 56.25 77.96875 56.328125 78.789062 57.949219 Z M 124.394531 57.363281 C 126.796875 58.867188 129.238281 60.839844 129.980469 61.875 C 130.488281 62.617188 130.566406 62.910156 130.566406 64.003906 C 130.566406 65.175781 130.527344 65.3125 129.921875 65.839844 C 129.199219 66.484375 128.378906 66.5625 126.25 66.191406 C 123.945312 65.78125 121.660156 66.699219 120.703125 68.398438 C 120.351562 69.023438 120.214844 69.667969 120.117188 70.9375 C 119.960938 72.96875 119.765625 73.242188 117.792969 74.355469 C 115.703125 75.507812 114.238281 76.5625 113.007812 77.773438 C 112.382812 78.417969 111.835938 78.886719 111.796875 78.867188 C 111.484375 78.554688 120.410156 57.597656 121.308594 56.503906 C 121.738281 56.015625 122.578125 56.25 124.394531 57.363281 Z M 66.269531 68.4375 C 66.621094 68.574219 67.148438 68.984375 67.441406 69.316406 C 67.929688 69.921875 67.96875 70.058594 67.96875 71.953125 C 67.96875 75.019531 68.574219 76.640625 70.3125 78.203125 C 71.425781 79.21875 73.027344 79.902344 75.976562 80.664062 C 80.078125 81.71875 82.265625 82.714844 84.0625 84.355469 C 84.746094 84.960938 86.132812 87.050781 86.132812 87.460938 C 86.132812 87.792969 84.960938 89.648438 84.746094 89.648438 C 84.53125 89.648438 72.8125 84.414062 68.554688 82.421875 C 61.660156 79.179688 57.714844 77.207031 57.34375 76.796875 C 56.992188 76.386719 56.992188 76.347656 57.382812 75.410156 C 58.183594 73.476562 60.722656 70.117188 62.1875 69.082031 C 63.4375 68.203125 65.078125 67.929688 66.269531 68.4375 Z M 136.289062 68.554688 C 137.402344 69.0625 139.023438 70.761719 140.449219 72.929688 C 142.128906 75.488281 142.363281 76.542969 141.367188 77.1875 C 139.628906 78.339844 115.019531 89.667969 114.316406 89.648438 C 114.238281 89.648438 113.867188 89.140625 113.515625 88.554688 L 112.890625 87.460938 L 113.417969 86.542969 C 113.710938 86.054688 114.394531 85.195312 114.941406 84.628906 C 116.953125 82.617188 119.160156 81.582031 123.320312 80.644531 C 127.617188 79.6875 129.609375 78.4375 130.820312 75.996094 C 131.269531 75.078125 131.347656 74.609375 131.445312 72.480469 C 131.523438 70.351562 131.601562 69.941406 131.972656 69.414062 C 132.851562 68.183594 134.667969 67.8125 136.289062 68.554688 Z M 56.289062 84.589844 C 60.761719 86.367188 66.308594 88.359375 75.664062 91.523438 C 78.964844 92.65625 81.914062 93.691406 82.207031 93.847656 L 82.753906 94.121094 L 81.933594 97.324219 L 79.003906 97.207031 C 75.585938 97.089844 74.042969 96.679688 71.523438 95.214844 C 68.554688 93.515625 67.460938 93.105469 65.664062 93.007812 C 62.558594 92.832031 60.957031 93.535156 59.082031 95.898438 C 58.476562 96.660156 57.695312 97.460938 57.34375 97.675781 C 56.445312 98.222656 55.136719 98.164062 54.179688 97.539062 C 52.128906 96.210938 51.523438 93.535156 52.246094 88.808594 C 52.695312 85.820312 53.59375 84.179688 54.804688 84.179688 C 55.058594 84.179688 55.722656 84.355469 56.289062 84.589844 Z M 145.390625 84.472656 C 146.484375 85.195312 147.128906 87.929688 147.148438 91.796875 C 147.167969 94.355469 147.148438 94.472656 146.582031 95.605469 C 145.820312 97.089844 144.863281 97.871094 143.59375 98.007812 C 142.324219 98.125 141.660156 97.753906 140.566406 96.347656 C 138.59375 93.808594 137.421875 93.144531 134.667969 93.007812 C 132.460938 92.910156 130.878906 93.28125 129.003906 94.355469 C 126.816406 95.605469 124.921875 96.484375 123.789062 96.796875 C 123.222656 96.953125 121.503906 97.128906 120 97.207031 L 117.226562 97.324219 L 116.894531 96.171875 C 116.328125 94.238281 116.367188 93.945312 117.285156 93.613281 C 118.339844 93.222656 123.046875 91.601562 130.273438 89.140625 C 133.554688 88.027344 137.949219 86.464844 140.039062 85.664062 C 142.128906 84.863281 144.101562 84.199219 144.394531 84.199219 C 144.6875 84.179688 145.136719 84.316406 145.390625 84.472656 Z M 102.792969 87.304688 C 107.890625 88.59375 111.367188 92.363281 112.226562 97.558594 C 112.519531 99.21875 112.539062 99.785156 112.34375 101.308594 C 111.835938 105.3125 109.902344 108.613281 106.855469 110.625 C 105.097656 111.796875 103.359375 112.441406 101.25 112.695312 C 95 113.476562 89.53125 110.078125 87.421875 104.121094 C 86.875 102.578125 86.835938 102.226562 86.835938 100 C 86.835938 97.167969 87.148438 95.742188 88.242188 93.671875 C 89.53125 91.191406 91.40625 89.375 93.886719 88.164062 C 96.503906 86.894531 99.921875 86.5625 102.792969 87.304688 Z M 57.304688 102.382812 C 57.578125 102.5 58.339844 103.242188 58.984375 104.042969 C 61.074219 106.5625 62.65625 107.34375 65.410156 107.1875 C 67.148438 107.070312 68.476562 106.582031 71.230469 105.019531 C 72.285156 104.414062 73.710938 103.710938 74.414062 103.4375 C 75.800781 102.929688 78.417969 102.539062 80.566406 102.539062 L 81.933594 102.539062 L 82.382812 104.21875 C 82.636719 105.15625 82.753906 105.976562 82.675781 106.054688 C 82.597656 106.132812 81.113281 106.679688 79.394531 107.285156 C 77.675781 107.890625 73.496094 109.355469 70.117188 110.546875 C 66.738281 111.738281 62.109375 113.417969 59.84375 114.277344 C 55.410156 115.957031 54.570312 116.171875 53.925781 115.839844 C 52.988281 115.332031 52.207031 112.441406 52.011719 108.867188 C 51.875 106.210938 52.109375 105.136719 53.125 103.730469 C 54.121094 102.363281 55.976562 101.757812 57.304688 102.382812 Z M 144.589844 102.421875 C 145.527344 102.8125 146.640625 104.199219 147.011719 105.46875 C 147.578125 107.402344 147.03125 112.8125 146.074219 114.6875 C 145.566406 115.683594 144.921875 116.09375 144.101562 115.917969 C 143.75 115.839844 142.402344 115.371094 141.113281 114.902344 C 136.953125 113.339844 125.214844 109.140625 119.667969 107.246094 C 117.871094 106.621094 116.367188 106.074219 116.308594 106.015625 C 116.25 105.976562 116.347656 105.585938 116.484375 105.15625 C 116.640625 104.746094 116.875 103.984375 117.011719 103.457031 L 117.246094 102.539062 L 118.4375 102.539062 C 120.351562 102.539062 122.949219 102.910156 124.316406 103.359375 C 125.019531 103.574219 126.621094 104.375 127.890625 105.117188 C 130.585938 106.699219 132.128906 107.226562 134.003906 107.226562 C 136.621094 107.226562 138.613281 106.210938 140.332031 103.984375 C 140.839844 103.359375 141.503906 102.675781 141.855469 102.5 C 142.617188 102.089844 143.730469 102.050781 144.589844 102.421875 Z M 85.625 111.269531 L 86.308594 112.363281 L 85.820312 113.28125 C 84.140625 116.347656 81.679688 117.851562 75.9375 119.316406 C 72.1875 120.273438 71.328125 120.644531 70.039062 121.875 C 68.496094 123.320312 68.125 124.316406 67.988281 127.382812 C 67.851562 130.097656 67.636719 130.644531 66.484375 131.25 C 65.722656 131.640625 63.554688 131.621094 62.792969 131.210938 C 61.445312 130.488281 58.671875 127.148438 57.597656 124.960938 C 57.148438 124.023438 57.148438 124.023438 57.539062 123.515625 C 58.105469 122.734375 68.886719 117.363281 78.613281 113.007812 C 82.050781 111.464844 84.882812 110.195312 84.902344 110.175781 C 84.921875 110.15625 85.234375 110.664062 85.625 111.269531 Z M 116.660156 111.347656 C 117.851562 111.894531 120 112.871094 121.386719 113.476562 C 129.316406 117.011719 141.074219 122.65625 141.5625 123.183594 C 141.796875 123.4375 141.992188 123.828125 141.992188 124.023438 C 141.992188 124.707031 139.902344 127.949219 138.359375 129.667969 C 136.757812 131.445312 134.550781 132.109375 132.871094 131.328125 C 131.757812 130.78125 131.5625 130.292969 131.425781 127.597656 C 131.328125 125.429688 131.25 125.097656 130.703125 123.964844 C 129.472656 121.464844 127.734375 120.410156 122.96875 119.257812 C 118.300781 118.105469 115.957031 116.816406 114.0625 114.277344 C 112.753906 112.558594 112.714844 112.363281 113.496094 111.25 C 113.847656 110.761719 114.21875 110.351562 114.296875 110.351562 C 114.375 110.351562 115.449219 110.800781 116.660156 111.347656 Z M 95.449219 117.03125 L 97.070312 117.480469 L 97.070312 118.691406 C 97.070312 121.582031 96.347656 124.648438 94.6875 128.710938 C 94.140625 130.058594 93.535156 131.621094 93.339844 132.207031 C 92.558594 134.472656 92.675781 137.128906 93.652344 139.0625 C 94.082031 139.921875 95.488281 141.386719 96.523438 142.070312 C 97.167969 142.5 97.65625 143.496094 97.65625 144.414062 C 97.65625 145.800781 96.367188 147.519531 94.824219 148.164062 C 93.769531 148.59375 91.113281 148.730469 88.789062 148.457031 C 85.859375 148.105469 84.960938 147.617188 84.960938 146.328125 C 84.960938 145.917969 85.664062 143.496094 86.523438 140.917969 C 87.382812 138.339844 88.945312 133.203125 89.960938 129.492188 C 93.496094 116.71875 93.535156 116.601562 93.75 116.601562 C 93.808594 116.601562 94.570312 116.796875 95.449219 117.03125 Z M 106.09375 118.261719 C 106.386719 119.121094 107.167969 121.933594 107.8125 124.511719 C 109.453125 130.898438 109.882812 132.363281 112.226562 139.492188 C 113.339844 142.910156 114.257812 145.976562 114.257812 146.347656 C 114.257812 147.460938 113.476562 147.910156 110.742188 148.359375 C 108.652344 148.710938 106.425781 148.710938 105.117188 148.378906 C 103.144531 147.851562 101.777344 146.445312 101.601562 144.746094 C 101.484375 143.476562 101.875 142.8125 103.417969 141.582031 C 105.351562 140.019531 106.132812 138.632812 106.386719 136.308594 C 106.5625 134.648438 106.152344 132.871094 104.902344 129.707031 C 102.890625 124.667969 102.148438 121.679688 102.148438 118.496094 C 102.148438 117.207031 102.148438 117.1875 102.695312 117.167969 C 102.988281 117.167969 103.613281 117.050781 104.101562 116.894531 C 104.589844 116.757812 105.117188 116.660156 105.273438 116.679688 C 105.449219 116.699219 105.761719 117.304688 106.09375 118.261719 Z M 87.109375 121.953125 C 86.542969 123.613281 84.023438 129.6875 81.699219 135.058594 C 77.636719 144.355469 77.890625 143.925781 76.914062 143.691406 C 76.132812 143.496094 71.503906 140.3125 70.371094 139.199219 C 69.160156 138.007812 68.710938 137.1875 68.710938 136.035156 C 68.710938 134.472656 69.6875 133.398438 71.09375 133.398438 C 71.425781 133.398438 72.324219 133.496094 73.066406 133.632812 C 74.746094 133.90625 76.191406 133.632812 77.304688 132.8125 C 78.535156 131.933594 78.945312 131.074219 79.121094 129.0625 C 79.296875 126.914062 79.316406 126.875 82.617188 124.726562 C 83.964844 123.828125 85.585938 122.597656 86.230469 121.953125 C 86.875 121.289062 87.421875 120.78125 87.460938 120.800781 C 87.480469 120.820312 87.324219 121.347656 87.109375 121.953125 Z M 116.914062 124.980469 C 118.984375 126.230469 119.84375 127.03125 120.019531 127.792969 C 120.058594 128.027344 120.136719 128.75 120.175781 129.414062 C 120.253906 130.957031 120.800781 131.972656 121.933594 132.753906 C 123.242188 133.632812 124.6875 133.925781 126.386719 133.632812 C 129.003906 133.183594 129.863281 133.398438 130.390625 134.6875 C 131.40625 137.128906 129.589844 139.511719 124.199219 142.734375 C 122.5 143.75 121.542969 144.003906 121.132812 143.496094 C 120.703125 142.988281 111.914062 121.894531 111.914062 121.386719 C 111.914062 121.328125 112.578125 121.835938 113.378906 122.519531 C 114.199219 123.203125 115.78125 124.316406 116.914062 124.980469 Z M 116.914062 124.980469 "/>
<path style=" stroke:none;fill-rule:nonzero;fill:rgb(100%,100%,100%);fill-opacity:1;" d="M 98.046875 90.175781 C 96.113281 90.488281 94.0625 91.503906 92.832031 92.734375 C 91.035156 94.53125 90.039062 97.089844 90.039062 99.921875 C 90.039062 103.769531 92.148438 107.070312 95.683594 108.75 C 96.894531 109.335938 97.402344 109.453125 98.789062 109.53125 C 104.667969 109.84375 109.179688 105.605469 109.179688 99.765625 C 109.179688 97.03125 108.300781 94.824219 106.445312 92.96875 C 104.277344 90.800781 100.9375 89.6875 98.046875 90.175781 Z M 101.210938 94.921875 C 102.363281 95.253906 103.554688 96.269531 104.160156 97.441406 C 105.488281 100.078125 104.355469 103.359375 101.71875 104.492188 C 99.21875 105.566406 96.269531 104.589844 95.078125 102.265625 C 94.472656 101.09375 94.375 98.964844 94.863281 97.832031 C 95.996094 95.292969 98.476562 94.160156 101.210938 94.921875 Z M 101.210938 94.921875 "/>
</g>
</svg>
